<?xml version="1.0" ?>
<!-- License: CC Attribution. Made by reynaindra: https://www.behance.net/reynaindra -->
<svg width="800px" height="800px" viewBox="0 0 96 96" xmlns="http://www.w3.org/2000/svg"><title/><path d="M90.91,32.8,32.8,90.91a10.57,10.57,0,0,1-10,2.79c-.32-.08-.64-.18-1-.28l-.51-.19q-.46-.2-.9-.42A10.81,10.81,0,0,1,19.13,92c-.28-.21-.56-.43-.83-.67L17.91,91l0,0L5.09,78.14a10.57,10.57,0,0,1,0-14.94l51-51L63.2,5.09a10.57,10.57,0,0,1,14.94,0L90.91,17.86A10.57,10.57,0,0,1,90.91,32.8Z" style="fill:#aae1e9"/><path d="M90.9,63.18,75.72,48,48,75.71,63.18,90.89a10.55,10.55,0,0,0,15,0L90.9,78.13A10.55,10.55,0,0,0,90.9,63.18Z" style="fill:#eaeaea"/><path d="M38.6,9.14A4,4,0,0,0,35.81,8H16.4a4,4,0,0,0-2.81,1.16L5.22,17.51A10.89,10.89,0,0,0,5.22,33L20.28,48,49,19.34Z" style="fill:#eaeaea"/><path d="M38.6,9.14A4,4,0,0,0,35.81,8H16.4a4,4,0,0,0-2.81,1.16L5.22,17.51A10.89,10.89,0,0,0,5.22,33L20.28,48,49,19.34Z" style="fill:none;stroke:#281a3b;stroke-linecap:round;stroke-linejoin:round;stroke-width:4px"/><path d="M11.81,10.92,23,22.09a4,4,0,0,0,5.62,0L40.12,10.63" style="fill:none;stroke:#281a3b;stroke-linecap:round;stroke-linejoin:round;stroke-width:4px"/><path d="M41.73,64.62,31.38,54.27c-1-1-.77-3,.57-4.29l18-18c1.34-1.34,3.26-1.6,4.29-.57L64.62,41.73c1,1,.77,3-.57,4.29l-18,18C44.68,65.39,42.76,65.65,41.73,64.62Z" style="fill:#fede94"/><path d="M41.73,64.62,31.38,54.27c-1-1-.77-3,.57-4.29l18-18c1.34-1.34,3.26-1.6,4.29-.57L64.62,41.73c1,1,.77,3-.57,4.29l-18,18C44.68,65.39,42.76,65.65,41.73,64.62Z" style="fill:none;stroke:#281a3b;stroke-linecap:round;stroke-linejoin:round;stroke-width:4px"/><path d="M90.91,32.8,32.8,90.91a10.57,10.57,0,0,1-10,2.79c-.32-.08-.64-.18-1-.28l-.51-.19q-.46-.2-.9-.42A10.81,10.81,0,0,1,19.13,92c-.28-.21-.56-.43-.83-.67L17.91,91l0,0-7.12-7.12a15,15,0,0,0,21.2,0L79.78,35.92a15,15,0,0,0,0-21.2l-2.52-2.51a14.93,14.93,0,0,0-21.16,0L63.2,5.09a10.57,10.57,0,0,1,14.94,0L90.91,17.86A10.57,10.57,0,0,1,90.91,32.8Z" style="fill:#75c9c9"/><path d="M90.91,32.8,32.8,90.91a10.57,10.57,0,0,1-14.89,0l0,0L5.09,78.14a10.57,10.57,0,0,1,0-14.94l51-51L63.2,5.09a9.22,9.22,0,0,1,1-.88,10.18,10.18,0,0,1,2.46-1.43,10,10,0,0,1,1.58-.5c.27-.06.54-.12.81-.16a10.57,10.57,0,0,1,9.08,3L90.91,17.86A10.57,10.57,0,0,1,90.91,32.8Z" style="fill:none;stroke:#281a3b;stroke-linecap:round;stroke-linejoin:round;stroke-width:4px"/><path d="M90.9,78.13,78.13,90.89a10.55,10.55,0,0,1-15,0l-6.52-6.52a15,15,0,0,0,20.59-.59l5.65-5.65a10.57,10.57,0,0,0,0-15L71.72,52l4-4L90.9,63.18A10.57,10.57,0,0,1,90.9,78.13Z" style="fill:#bacece"/><path d="M90.9,78.13,78.13,90.89a10.55,10.55,0,0,1-15,0l-6.52-6.52-.07-.06L48,75.71,71.72,52l4-4L90.9,63.18A10.57,10.57,0,0,1,90.9,78.13Z" style="fill:none;stroke:#281a3b;stroke-linecap:round;stroke-linejoin:round;stroke-width:4px"/></svg>